# xmcd
#
# Track frame offsets: 
#        150
#        14075
#        27175
#        38798
#        53200
#        67192
#        83447
#        95108
#        109432
#        139052
#        150381
#        165660
#        180697
#        192312
#        211250
#        220332
#        225238
#        231898
#
# Disc length: 3216 seconds
#
# Revision: 0
# Processed by: cddbd v1.5.2PL0 Copyright (c) Steve Scherf et al.
# Submitted via: ExactAudioCopy v0.95b4
#
DISCID=f70c8e12
DTITLE=LILH KAMPOURELOS SWKRATHS - LILH H REMPETISA THS THESSALONIKHS
DYEAR=1987
DGENRE=Country
TTITLE0=Petalouda
TTITLE1=Oloi oi rempetes tou ntounia
TTITLE2=Ntam-ntimpi-ntam
TTITLE3=Prin to xarama monaxos
TTITLE4=Mpouzouki mou diploxordo
TTITLE5=Ti omorfh pou eisai otan klais
TTITLE6=Dwdeka h wra
TTITLE7=T akrogiali
TTITLE8=To minore ths aughs
TTITLE9=Fisaei o mpaths
TTITLE10=Serse la fam
TTITLE11=O Barwnos
TTITLE12=Pergamos
TTITLE13=Axaristh
TTITLE14=Sa magemeno to mialo mou
TTITLE15=Apo bradus xekinhsa
TTITLE16=Ti se mellei esena ka an gurno
TTITLE17=Tosa bradia leipeis
EXTD=
EXTT0=
EXTT1=
EXTT2=
EXTT3=
EXTT4=
EXTT5=
EXTT6=
EXTT7=
EXTT8=
EXTT9=
EXTT10=
EXTT11=
EXTT12=
EXTT13=
EXTT14=
EXTT15=
EXTT16=
EXTT17=
PLAYORDER=
